<?xml version="1.0" encoding="UTF-8" standalone="no"?>
<svg
   xmlns:dc="http://purl.org/dc/elements/1.1/"
   xmlns:cc="http://creativecommons.org/ns#"
   xmlns:rdf="http://www.w3.org/1999/02/22-rdf-syntax-ns#"
   xmlns:svg="http://www.w3.org/2000/svg"
   xmlns="http://www.w3.org/2000/svg"
   viewBox="0 0 353.33334 353.33334"
   height="353.33334"
   width="353.33334"
   xml:space="preserve"
   id="svg2"
   version="1.1"><metadata
     id="metadata8"><rdf:RDF><cc:Work
         rdf:about=""><dc:format>image/svg+xml</dc:format><dc:type
           rdf:resource="http://purl.org/dc/dcmitype/StillImage" /></cc:Work></rdf:RDF></metadata><defs
     id="defs6" /><g
     transform="matrix(1.3333333,0,0,-1.3333333,0,353.33333)"
     id="g10"><g
       transform="scale(0.1)"
       id="g12"><path
         id="path14"
         style="fill:#004a73;fill-opacity:1;fill-rule:evenodd;stroke:none"
         d="m 631.559,2339.8 c 291.211,188.56 597.271,252.58 918.091,192.19 321.44,-60.39 583.63,-231.76 786.64,-513.9 188.55,-291.21 252.54,-597.54 192.15,-918.99 C 2467.42,778.281 2296.41,516.371 2015.47,313.359 1723.67,125.469 1417.03,61.3711 1095.55,121.211 774.73,181.602 512.809,352.582 309.84,634.18 121.91,925.98 57.8516,1232.34 117.66,1553.16 c 60.391,321.49 231.75,583.68 513.899,786.64 m -53.508,78.91 C 273.59,2199.34 88.6289,1916.91 23.4414,1571.29 -41.2109,1225.7 27.9688,895.469 230.941,580.738 450.309,276.762 732.73,92.1914 1078.36,26.9492 c 345.59,-64.6484 675.82,4.8516 990.55,208.4808 303.98,218.711 488.55,500.859 553.79,846.45 65.27,345.03 -3.91,674.92 -207.54,989.72 -219.38,303.91 -501.8,488.79 -847.39,554.61 -345.62,65.31 -675.5,-3.87 -989.719,-207.5" /><path
         id="path16"
         style="fill:#0c6eb8;fill-opacity:1;fill-rule:evenodd;stroke:none"
         d="m 2307.3,1597.58 c -36.87,-22.97 -74.06,-45.63 -111.52,-67.97 -38.01,-21.76 -75.47,-42.58 -112.34,-62.54 -74.3,-40.51 -147.15,-76.76 -218.44,-108.75 -17.5,-8.44 -35.04,-16.91 -52.54,-25.35 -6.64,-2.46 -13.87,-5.16 -21.76,-8.2 v -58.91 l 42.58,13.59 55.31,19.03 c 75.55,25.97 153.13,55.93 232.93,89.72 39.22,16.92 79.18,35.04 119.61,54.38 40.47,18.75 81.25,38.36 122.35,58.9 52.61,27.19 105.11,55.94 157.73,86.1 -9.06,44.1 -21.17,87.93 -36.25,131.4 -58.05,-42.26 -117.23,-82.77 -177.66,-121.4" /><path
         id="path18"
         style="fill:#0c6eb8;fill-opacity:1;fill-rule:evenodd;stroke:none"
         d="m 2145.12,1642.89 c -35.71,-26.56 -70.74,-52.27 -105.16,-77.03 -69.53,-48.95 -137.77,-93.98 -204.84,-135.04 -15.08,-9.06 -29.89,-18.4 -44.42,-28.12 v -21.72 c 1.21,1.21 3.01,2.11 5.47,2.69 16.29,9.69 32.93,19.34 49.85,29.03 68.82,38.67 138.94,81.83 210.23,129.57 35.66,23.59 71.56,48.08 107.81,73.43 35.71,25.98 71.33,52.89 106.99,80.63 57.39,43.55 113.6,89.14 168.6,136.87 -6.1,13.87 -12.74,27.82 -19.96,41.72 -56.21,-51.99 -113.28,-102.11 -171.29,-150.47 -34.45,-27.18 -68.87,-54.37 -103.28,-81.56" /><path
         id="path20"
         style="fill:#0c6eb8;fill-opacity:1;fill-rule:evenodd;stroke:none"
         d="m 368.75,807.301 c 74.879,40.429 147.699,76.679 218.359,108.75 18.121,8.437 35.391,16.57 51.68,24.461 17.5,7.258 34.762,14.218 51.68,20.859 33.203,15.078 66.133,28.981 98.793,41.639 21.718,7.85 43.199,15.74 64.367,23.59 l -0.93,38.09 c -24.219,-6.64 -50.121,-13.87 -77.969,-21.72 -33.21,-9.73 -67.351,-20 -102.39,-30.9 -18.121,-6.02 -36.25,-11.76 -54.371,-17.191 -18.129,-6.68 -36.598,-13.32 -55.309,-19.918 -74.34,-25.391 -151.64,-55 -232,-88.832 -39.289,-17.5 -79.449,-35.617 -120.539,-54.41 -2.461,-1.168 -5.16,-2.379 -8.211,-3.598 13.32,-30.781 28.129,-60.742 44.5,-89.723 2.969,1.801 6.289,3.903 9.879,6.332 37.461,21.79 75,42.61 112.461,62.571" /><path
         id="path22"
         style="fill:#0c6eb8;fill-opacity:1;fill-rule:evenodd;stroke:none"
         d="m 616.129,843.551 c 15.711,10.277 31.992,20.551 48.949,30.828 16.332,9.062 32.344,18.391 48.043,28.082 32.039,18.129 63.09,35.348 93.328,51.641 15.742,8.476 31.09,16.636 46.25,24.488 v 13.601 C 835.121,983.672 817.34,975.27 799.219,966.762 768.98,951.68 737.578,935.391 704.922,917.852 688.629,908.789 671.988,899.73 655.078,890.66 638.789,881.02 622.148,871.602 605.23,862.539 536.41,822.66 466.289,779.488 395,732.969 c -34.488,-23.59 -68.871,-47.457 -103.281,-71.598 5.351,-9.07 11.09,-18.133 17.191,-27.191 34.41,25.351 68.551,50.16 102.379,74.3 69.531,48.981 137.77,93.942 204.84,135.071" /><path
         id="path24"
         style="fill:#0c6eb8;fill-opacity:1;fill-rule:evenodd;stroke:none"
         d="m 1667.46,1895.74 -686.948,2.74 C 904.301,1891.21 862.699,1849.84 855.391,1774.3 L 851.762,829.961 C 858.441,754.41 899.77,713.012 975.98,705.781 l 686.95,-2.691 c 76.09,7.219 118.09,48.629 125.94,124.101 l 3.63,943.509 c -7.23,76.1 -48.95,117.82 -125.04,125.04 m -6.37,-157.69 -3.63,-877.269 c -1.21,-10.902 -6.91,-16.953 -17.19,-18.121 l -639.88,3.59 c -10.269,0.629 -16.011,6.02 -17.191,16.289 l 2.66,877.341 c 1.211,11.49 7.301,17.5 18.161,18.13 l 638.95,-1.84 c 10.9,-1.21 16.91,-7.22 18.12,-18.12" /><path
         id="path26"
         style="fill:#ffffff;fill-opacity:1;fill-rule:evenodd;stroke:none"
         d="m 1284.1,769.219 c 2.42,22.383 14.45,34.41 36.25,36.25 22.31,-2.418 34.69,-14.528 37.11,-36.25 -2.97,-22.379 -15.35,-34.418 -37.11,-36.25 -22.38,1.832 -34.45,13.871 -36.25,36.25" /><path
         id="path28"
         style="fill:#0c6eb8;fill-opacity:1;fill-rule:evenodd;stroke:none"
         d="m 1458.98,1149.45 v -81.17 h -266.4 v 444.22 h 256.21 v -81.45 h -156.13 v -98.82 h 145.27 v -81.18 h -145.27 v -101.6 z" /><path
         id="path30"
         style="fill:#0f70b8;fill-opacity:1;fill-rule:nonzero;stroke:none"
         d="m 1208.98,990.199 h -27.96 v -80 h -22.04 v 80 h -27.81 v 17.961 h 77.81 z m 22.04,1.09 c -3.68,0 -6.64,1.012 -8.91,3.121 -2.31,2.192 -3.44,4.891 -3.44,8.13 0,3.2 1.13,5.82 3.44,7.81 2.27,2.07 5.23,3.13 8.91,3.13 3.75,0 6.75,-1.06 9.06,-3.13 2.26,-1.99 3.44,-4.61 3.44,-7.81 0,-3.36 -1.18,-6.06 -3.44,-8.13 -2.31,-2.109 -5.31,-3.121 -9.06,-3.121 z m 10.62,-81.09 h -21.5586 v 70 h 21.5586 z" /><path
         id="path32"
         style="fill:#0f70b8;fill-opacity:1;fill-rule:nonzero;stroke:none"
         d="m 1313.12,912.699 c -4.92,-2.82 -11.95,-4.219 -21.09,-4.219 -10.86,0 -19.61,3.2 -26.25,9.68 -6.56,6.57 -9.84,15 -9.84,25.32 0,11.872 3.51,21.25 10.62,28.122 7.07,6.878 16.6,10.308 28.6,10.308 8.2,0 14.22,-1.09 17.96,-3.281 v -18.277 c -4.6,3.32 -9.64,5 -15.15,5 -6.17,0 -11.06,-1.832 -14.69,-5.473 -3.67,-3.551 -5.47,-8.551 -5.47,-15 0,-6.168 1.72,-11.008 5.16,-14.527 3.44,-3.551 8.2,-5.313 14.37,-5.313 5.32,0 10.55,1.641 15.78,5 z" /><path
         id="path34"
         style="fill:#0f70b8;fill-opacity:1;fill-rule:nonzero;stroke:none"
         d="m 1397.42,910.199 h -25.94 l -22.34,34.68 h -0.31 v -34.68 h -21.56 v 103.591 h 21.56 v -65.938 h 0.31 l 20.94,32.347 h 25.62 l -25.15,-32.82 z" /><path
         id="path36"
         style="fill:#0f70b8;fill-opacity:1;fill-rule:nonzero;stroke:none"
         d="m 1468.44,939.102 h -45.78 c 0.7,-10.231 7.11,-15.313 19.22,-15.313 7.69,0 14.45,1.801 20.31,5.473 v -15.633 c -6.49,-3.43 -14.85,-5.149 -25.16,-5.149 -11.37,0 -20.15,3.122 -26.41,9.372 -6.17,6.25 -9.21,15 -9.21,26.25 0,11.636 3.32,20.859 10,27.66 6.75,6.758 15.07,10.148 25,10.148 10.19,0 18.04,-3.039 23.59,-9.058 5.62,-6.051 8.44,-14.301 8.44,-24.692 z m -20,13.277 c 0,10 -4.06,15 -12.19,15 -3.55,0 -6.56,-1.481 -9.06,-4.367 -2.5,-2.813 -4.03,-6.371 -4.53,-10.633 z" /><path
         id="path38"
         style="fill:#0f70b8;fill-opacity:1;fill-rule:nonzero;stroke:none"
         d="m 1523.55,910.98 c -3.24,-1.64 -8.04,-2.5 -14.37,-2.5 -15.23,0 -22.81,7.891 -22.81,23.75 v 32.032 h -11.41 v 15.937 h 11.41 v 15.153 l 21.4,6.098 v -21.251 h 15.78 v -15.937 h -15.78 V 935.98 c 0,-7.308 2.89,-10.941 8.75,-10.941 2.27,0 4.61,0.66 7.03,2.031 z" /></g></g></svg>